<?xml version="1.0" encoding="UTF-8" standalone="no"?>
<!-- Created with Inkscape (http://www.inkscape.org/) -->

<svg
   width="4.2333374mm"
   height="4.233449mm"
   viewBox="0 0 4.2333374 4.233449"
   version="1.1"
   id="svg5"
   xml:space="preserve"
   xmlns:inkscape="http://www.inkscape.org/namespaces/inkscape"
   xmlns:sodipodi="http://sodipodi.sourceforge.net/DTD/sodipodi-0.dtd"
   xmlns="http://www.w3.org/2000/svg"
   xmlns:svg="http://www.w3.org/2000/svg"><sodipodi:namedview
     id="namedview7"
     pagecolor="#505050"
     bordercolor="#eeeeee"
     borderopacity="1"
     inkscape:showpageshadow="0"
     inkscape:pageopacity="0"
     inkscape:pagecheckerboard="0"
     inkscape:deskcolor="#505050"
     inkscape:document-units="mm"
     showgrid="false" /><defs
     id="defs2" /><g
     inkscape:label="Layer 1"
     inkscape:groupmode="layer"
     id="layer1"
     transform="translate(-128.79731,-14.736897)"><g
       id="g482"
       inkscape:export-filename="icon.svg"
       inkscape:export-xdpi="96"
       inkscape:export-ydpi="96"><g
         id="g477"><rect
           style="fill:none;fill-rule:evenodd;stroke-width:0.264582"
           id="rect452"
           width="4.2333331"
           height="4.2333326"
           x="128.7973"
           y="14.736955" /></g><path
         style="fill:#ffffff;stroke-width:0.999999"
         d="m 130.88519,18.960726 c -0.009,-0.0054 -0.0176,-0.01174 -0.0185,-0.01412 -8.8e-4,-0.0024 -0.004,-0.0043 -0.006,-0.0043 -0.0103,0 -0.0854,-0.04523 -0.0826,-0.04973 0.002,-0.0027 3.8e-4,-0.0033 -0.003,-0.0014 -0.006,0.0035 -0.049,-0.01923 -0.049,-0.02566 0,-0.002 -0.003,-0.0036 -0.006,-0.0036 -0.003,0 -0.0214,-0.0089 -0.0401,-0.01976 l -0.0338,-0.01976 3.8e-4,-1.326754 c 3.7e-4,-1.299703 -1.2e-4,-1.348439 -0.0147,-1.348439 -0.003,0 -0.009,-0.0027 -0.0125,-0.006 -0.004,-0.0033 -0.014,-0.0099 -0.0232,-0.01456 -0.009,-0.0047 -0.0249,-0.01337 -0.0348,-0.01928 -0.01,-0.0059 -0.0283,-0.01645 -0.041,-0.02342 -0.0126,-0.007 -0.049,-0.02815 -0.0808,-0.04707 -0.0318,-0.01892 -0.0619,-0.03381 -0.0669,-0.0331 -0.009,0.0013 -0.009,0.03179 -0.009,1.322991 3e-5,0.726937 -0.002,1.322762 -0.004,1.324056 -0.004,0.0022 -0.0515,-0.02263 -0.0938,-0.04865 -0.0106,-0.0065 -0.0237,-0.01377 -0.0291,-0.01609 -0.005,-0.0023 -0.0329,-0.01836 -0.0611,-0.03563 -0.0282,-0.01727 -0.0558,-0.03283 -0.0613,-0.03457 -0.005,-0.0017 -0.0119,-0.0068 -0.0143,-0.0113 -0.007,-0.01339 -0.006,-1.085275 8.7e-4,-1.09416 0.004,-0.0049 0.004,-0.0062 3.8e-4,-0.004 -0.008,0.0048 -0.008,-1.258613 -4e-5,-1.268604 0.004,-0.0054 0.004,-0.0061 -6.2e-4,-0.0032 -0.008,0.005 -0.008,-0.111594 7.5e-4,-0.122123 0.004,-0.0054 0.004,-0.0061 -7.5e-4,-0.0032 -0.005,0.003 -0.006,-0.0074 -0.006,-0.05329 0.001,-0.108382 5e-4,-0.120721 -0.009,-0.123907 -0.005,-0.0016 -0.0171,-0.0083 -0.0277,-0.01491 -0.0106,-0.0066 -0.0307,-0.01794 -0.0446,-0.02518 -0.0139,-0.0072 -0.0253,-0.01488 -0.0253,-0.01698 0,-0.0021 -0.002,-0.0038 -0.005,-0.0038 -0.003,0 -0.0161,-0.0068 -0.0301,-0.01511 -0.014,-0.0083 -0.0396,-0.02259 -0.0568,-0.03174 -0.0172,-0.0092 -0.0349,-0.02069 -0.0392,-0.02565 -0.004,-0.005 -0.009,-0.0077 -0.0107,-0.0061 -0.002,0.0016 -0.006,7.25e-4 -0.009,-0.0019 -0.0279,-0.02186 -0.0255,-0.15001 -0.0242,1.313776 0.001,1.526797 0.008,1.344572 -0.0494,1.308598 -0.0106,-0.0066 -0.0238,-0.01394 -0.0293,-0.0163 -0.006,-0.0024 -0.0331,-0.01859 -0.0614,-0.03606 -0.0283,-0.01747 -0.0536,-0.03176 -0.0564,-0.03176 -0.003,0 -0.006,-0.0032 -0.008,-0.0072 -0.002,-0.004 -0.005,-0.0061 -0.007,-0.0048 -0.002,0.0013 -0.007,-3e-4 -0.0105,-0.0036 -0.004,-0.0033 -0.01,-0.0068 -0.0136,-0.0077 -0.004,-8.75e-4 -0.0104,-0.0043 -0.0143,-0.0077 -0.004,-0.0034 -0.011,-0.0075 -0.0157,-0.0091 -0.008,-0.0028 -0.008,-0.07081 -0.008,-1.335889 0,-0.887372 0.002,-1.331903 0.005,-1.329921 0.003,0.0016 0.005,8.25e-4 0.005,-0.0018 0,-0.0026 0.005,-0.0063 0.0109,-0.0081 0.006,-0.0018 0.0145,-0.0065 0.0189,-0.01033 0.004,-0.0039 0.0112,-0.0075 0.0151,-0.0081 0.004,-5.75e-4 0.022,-0.01097 0.0402,-0.0231 0.0345,-0.023 0.0621,-0.03833 0.0674,-0.03746 0.002,2.87e-4 0.004,-0.0013 0.006,-0.0035 0.004,-0.0054 0.0172,-0.01322 0.0484,-0.0285 0.0144,-0.0071 0.029,-0.01564 0.0325,-0.01908 0.0152,-0.01518 0.0642,-0.0087 0.0642,0.0085 0,0.0021 0.002,0.0034 0.004,0.0029 0.008,-0.0018 0.0297,0.0121 0.0268,0.01675 -0.002,0.0027 -5e-4,0.0034 0.002,0.0015 0.003,-0.0018 0.01,0.0012 0.0154,0.0067 0.005,0.0055 0.0121,0.0087 0.0146,0.0071 0.003,-0.0016 0.005,-5.75e-4 0.005,0.0022 0,0.0028 0.002,0.0047 0.004,0.0041 0.006,-0.0016 0.0458,0.02124 0.0831,0.04779 0.007,0.0047 0.0131,0.0089 0.0145,0.0092 0.0162,0.0045 0.0241,0.0085 0.0241,0.01199 0,0.0023 0.002,0.0038 0.004,0.0032 0.005,-0.0016 0.0542,0.02608 0.0542,0.03077 0,0.0022 0.003,0.0041 0.007,0.0041 0.004,0 0.007,0.0023 0.007,0.0051 0,0.0028 0.002,0.0039 0.004,0.0025 0.002,-0.0014 0.01,0.0017 0.0164,0.0069 0.007,0.0053 0.0142,0.0096 0.0167,0.0096 0.002,0 0.01,0.0043 0.0156,0.0096 0.006,0.0053 0.0137,0.0096 0.0169,0.0096 0.003,0 0.0142,0.006 0.0246,0.01337 0.0103,0.0074 0.028,0.01744 0.0393,0.02242 0.0113,0.005 0.0205,0.01054 0.0205,0.01236 0,0.0018 0.0163,0.01125 0.0361,0.02095 0.0199,0.0097 0.0361,0.01993 0.0361,0.02274 0,0.0028 0.002,0.0038 0.005,0.0021 0.003,-0.0016 0.005,-6.88e-4 0.005,0.0021 0,0.0028 0.003,0.0051 0.007,0.0051 0.004,0 0.007,0.0023 0.007,0.0051 0,0.0028 0.002,0.0039 0.004,0.0025 0.002,-0.0014 0.009,0.0017 0.0152,0.0069 0.006,0.0052 0.0139,0.0095 0.0175,0.0095 0.004,0 0.006,0.0022 0.006,0.0048 0,0.0026 0.002,0.0044 0.004,0.0039 0.006,-0.0016 0.0542,0.02484 0.0542,0.02964 0,0.0024 0.005,0.0059 0.0109,0.0076 0.006,0.0018 0.0163,0.0067 0.0229,0.01104 0.007,0.0043 0.0131,0.008 0.0145,0.0082 0.007,0.0014 0.0386,0.019 0.0386,0.02186 0,0.0019 0.005,0.0046 0.0109,0.0061 0.006,0.0015 0.0158,0.0073 0.0217,0.01276 0.006,0.0055 0.0107,0.0088 0.0107,0.0072 0,-0.0015 0.005,0.0016 0.0104,0.0069 0.006,0.0053 0.012,0.0086 0.0141,0.0073 0.002,-0.0013 0.005,-3e-4 0.007,0.0022 0.002,0.0025 0.0185,0.01226 0.0377,0.02176 0.0192,0.0095 0.0412,0.02268 0.0489,0.02931 0.008,0.0066 0.0162,0.01205 0.0188,0.01205 0.003,0 0.0125,0.0058 0.0218,0.01292 0.009,0.0071 0.0154,0.01042 0.0135,0.0074 -0.005,-0.0083 0.0614,0.03107 0.0716,0.04234 0.005,0.0053 0.0112,0.0097 0.0142,0.0097 0.0115,0 0.10427,0.05231 0.11598,0.06541 0.003,0.003 0.0119,0.0082 0.0205,0.01154 0.009,0.0034 0.0157,0.0083 0.0157,0.0109 0,0.0026 0.003,0.0036 0.007,0.0021 0.004,-0.0015 0.008,-0.0011 0.008,7e-4 7.5e-4,0.0018 0.0123,0.0088 0.0255,0.01539 0.0132,0.0066 0.0315,0.01855 0.0407,0.02651 0.009,0.008 0.0149,0.01153 0.0127,0.008 -0.003,-0.0053 -0.002,-0.0055 0.007,-8.87e-4 0.006,0.0031 0.0117,0.0087 0.0131,0.0125 0.001,0.0038 0.005,0.0055 0.007,0.0039 0.003,-0.0017 0.006,-8e-4 0.008,0.0019 0.008,0.01276 0.0603,0.02937 0.0666,0.02115 0.003,-0.0044 0.006,-0.0061 0.006,-0.0039 8e-5,0.0022 0.007,-0.0016 0.015,-0.0084 0.008,-0.0069 0.0166,-0.01248 0.0188,-0.01248 0.002,0 0.0165,-0.0084 0.0319,-0.01877 0.0154,-0.01032 0.0311,-0.01754 0.035,-0.01605 0.004,0.0017 0.006,7e-4 0.004,-0.0026 -0.002,-0.003 0.001,-0.0068 0.008,-0.0087 0.006,-0.0019 0.016,-0.0074 0.0223,-0.01233 0.006,-0.0049 0.0133,-0.0077 0.0157,-0.0063 0.002,0.0014 0.004,3.38e-4 0.004,-0.0025 0,-0.0028 0.003,-0.0051 0.007,-0.0051 0.004,0 0.007,-0.0025 0.007,-0.0056 0,-0.0031 0.001,-0.0043 0.003,-0.0027 0.002,0.0016 0.007,-9.5e-4 0.0122,-0.0057 0.005,-0.0047 0.022,-0.01517 0.0376,-0.02322 0.0269,-0.01386 0.0348,-0.03689 0.0124,-0.03627 -0.003,7.3e-5 -0.0103,-0.0036 -0.0169,-0.0082 -0.007,-0.0046 -0.0158,-0.0097 -0.0205,-0.01136 -0.005,-0.0017 -0.0198,-0.01029 -0.0337,-0.01915 -0.0139,-0.0089 -0.0292,-0.01759 -0.034,-0.0194 -0.005,-0.0019 -0.007,-0.0056 -0.005,-0.0089 0.002,-0.0033 10e-4,-0.0043 -0.002,-0.0025 -0.003,0.0017 -0.0253,-0.0087 -0.0501,-0.02303 -0.0248,-0.01437 -0.0543,-0.03095 -0.0654,-0.03685 -0.0112,-0.0059 -0.019,-0.01288 -0.0173,-0.01552 0.002,-0.0026 5e-4,-0.0034 -0.002,-0.0016 -0.005,0.0034 -0.0891,-0.04229 -0.0918,-0.05019 -0.001,-0.0025 -0.004,-0.0046 -0.006,-0.0046 -0.004,0 -0.0524,-0.02626 -0.0947,-0.05171 -0.01,-0.0059 -0.0211,-0.01226 -0.0251,-0.01411 -0.004,-0.0018 -0.008,-0.0046 -0.01,-0.0061 -0.001,-0.0015 -0.0148,-0.0091 -0.0299,-0.0169 -0.0151,-0.0078 -0.0262,-0.01621 -0.0246,-0.01879 0.002,-0.0026 3.7e-4,-0.0031 -0.003,-0.0012 -0.003,0.0019 -0.0115,-7e-4 -0.0188,-0.0058 -0.007,-0.0051 -0.0371,-0.02268 -0.0662,-0.03913 -0.0805,-0.04542 -0.0864,-0.04893 -0.0916,-0.05503 -0.003,-0.0031 -0.008,-0.0059 -0.0109,-0.0061 -0.0143,-0.0011 -0.016,-0.0023 -0.0128,-0.008 0.002,-0.0033 0.002,-0.0045 -3.8e-4,-0.0026 -0.006,0.0052 -0.0324,-0.01017 -0.0285,-0.01642 0.002,-0.0031 0.001,-0.004 -0.002,-0.0021 -0.003,0.0018 -0.0146,-0.0022 -0.026,-0.0089 -0.0114,-0.0067 -0.0381,-0.022 -0.0593,-0.03409 -0.0212,-0.01209 -0.0461,-0.0265 -0.0554,-0.03203 -0.009,-0.0055 -0.0266,-0.01543 -0.0385,-0.02201 -0.0604,-0.03329 -0.0722,-0.04078 -0.07,-0.04436 0.001,-0.0021 -2.5e-4,-0.0036 -0.004,-0.0032 -0.005,5.37e-4 -0.0551,-0.02581 -0.0951,-0.04983 -0.004,-0.0024 -0.0219,-0.01279 -0.0397,-0.02312 -0.0179,-0.01033 -0.0309,-0.02057 -0.0289,-0.02275 0.002,-0.0022 0.001,-0.0025 -0.002,-6.87e-4 -0.003,0.0018 -0.0281,-0.01008 -0.0554,-0.02641 -0.0273,-0.01634 -0.0616,-0.03611 -0.0762,-0.04393 -0.0146,-0.0078 -0.0284,-0.01603 -0.0307,-0.01822 -0.005,-0.0043 0.0358,-0.03183 0.0536,-0.03661 0.006,-0.0016 0.0109,-0.005 0.0109,-0.0075 0,-0.0025 0.002,-0.0032 0.005,-0.0016 0.003,0.0016 0.005,0.0012 0.005,-9.87e-4 0,-0.0022 0.008,-0.0077 0.0181,-0.01219 0.0219,-0.01 0.0437,-0.02287 0.055,-0.03261 0.005,-0.004 0.0231,-0.01482 0.0412,-0.0241 0.018,-0.0093 0.0344,-0.01904 0.0363,-0.02169 0.002,-0.0032 0.004,-0.0032 0.004,0 9e-5,0.0026 0.002,0.0023 0.004,-8.13e-4 0.002,-0.0031 0.007,-0.0064 0.0106,-0.0072 0.004,-8.88e-4 0.0101,-0.0044 0.0138,-0.0078 0.005,-0.0051 0.009,-0.0049 0.017,9.88e-4 0.006,0.004 0.0233,0.01412 0.0392,0.02255 0.0159,0.0084 0.0441,0.02552 0.0628,0.03797 0.0186,0.01246 0.0399,0.02415 0.0472,0.02599 0.007,0.0018 0.012,0.0055 0.0104,0.008 -0.002,0.0026 6.2e-4,0.0047 0.005,0.0047 0.01,0 0.0455,0.01955 0.0455,0.02498 0,0.0022 0.002,0.0036 0.004,0.0031 0.008,-0.0017 0.0297,0.0121 0.0268,0.01675 -0.002,0.0027 -5e-4,0.0034 0.002,0.0015 0.003,-0.0018 0.01,0.0012 0.0154,0.0067 0.005,0.0055 0.0121,0.0087 0.0146,0.0071 0.003,-0.0016 0.005,-5.75e-4 0.005,0.0022 0,0.0028 0.002,0.0047 0.004,0.0041 0.006,-0.0016 0.0458,0.02125 0.0831,0.04779 0.007,0.0047 0.0131,0.0088 0.0145,0.009 0.006,10e-4 0.0219,0.0088 0.0241,0.01144 0.001,0.0016 0.0116,0.0069 0.0228,0.01186 0.0112,0.0049 0.024,0.013 0.0285,0.01794 0.004,0.0049 0.011,0.009 0.0146,0.009 0.004,0 0.006,0.0023 0.006,0.0051 0,0.0028 0.002,0.0039 0.004,0.0025 0.002,-0.0014 0.009,0.0017 0.0152,0.0069 0.006,0.0052 0.0139,0.0095 0.0175,0.0095 0.004,0 0.006,0.0022 0.006,0.0048 0,0.0027 0.002,0.0043 0.004,0.0037 0.005,-0.0016 0.0542,0.02598 0.0542,0.03045 0,0.0021 0.005,0.0052 0.0108,0.0071 0.006,0.0019 0.0163,0.0072 0.0229,0.01184 0.007,0.0047 0.0137,0.0087 0.0156,0.0091 0.009,0.0015 0.0374,0.01713 0.0374,0.02064 0,0.0022 0.003,0.0039 0.007,0.0039 0.004,0 0.0166,0.0077 0.0289,0.01709 0.0123,0.0094 0.0224,0.01584 0.0224,0.01431 0,-0.0049 0.0999,0.05234 0.10604,0.06077 10e-4,0.0018 0.0263,0.01546 0.0554,0.03027 0.0291,0.01481 0.0565,0.03118 0.0608,0.03637 0.004,0.0052 0.009,0.0081 0.0108,0.0064 0.002,-0.0017 0.003,-3.5e-4 0.003,0.0029 0,0.0032 0.002,0.0044 0.005,0.0026 0.003,-0.0018 0.007,-0.0014 0.008,9.25e-4 0.006,0.0083 0.0263,0.02337 0.0223,0.01656 -0.005,-0.0082 0.0129,0.0019 0.0912,0.052 0.013,0.0083 0.0266,0.01518 0.0301,0.01518 0.004,0 0.006,0.0019 0.006,0.0043 0,0.0024 0.005,0.0055 0.0109,0.007 0.0119,0.003 0.0568,0.03105 0.0625,0.03908 0.002,0.0027 0.004,0.0031 0.004,8e-4 4e-5,-0.0023 0.003,-0.002 0.006,7.12e-4 0.003,0.0027 0.0234,0.0141 0.0446,0.02531 0.0212,0.01121 0.043,0.02444 0.0485,0.0294 0.005,0.005 0.0122,0.009 0.015,0.009 0.003,0 0.0108,0.0045 0.0178,0.01 0.007,0.0055 0.0127,0.0089 0.0127,0.0075 0,-0.0014 0.006,5e-4 0.0127,0.0041 0.0109,0.0056 0.0137,0.0056 0.0196,-3e-4 0.004,-0.0038 0.01,-0.0069 0.0131,-0.0069 0.003,0 0.012,-0.0045 0.0189,-0.01 0.007,-0.0055 0.0127,-0.0085 0.0127,-0.0068 0,0.0018 0.0103,-0.0042 0.0229,-0.0132 0.0329,-0.02358 0.0844,-0.05307 0.0802,-0.04596 -0.002,0.0033 5e-4,0.0025 0.006,-0.0018 0.005,-0.0043 0.0181,-0.0123 0.0289,-0.01772 0.0108,-0.0054 0.0224,-0.01323 0.0258,-0.01737 0.003,-0.0041 0.008,-0.0063 0.0105,-0.0049 0.002,0.0015 0.004,6.88e-4 0.004,-0.0017 0,-0.0024 0.008,-0.0084 0.0168,-0.01336 0.0264,-0.01425 0.0247,-0.01951 -0.0133,-0.04087 -0.0443,-0.02486 -0.0507,-0.02873 -0.0697,-0.04222 -0.009,-0.0061 -0.0157,-0.01001 -0.0157,-0.0087 0,0.004 -0.0839,-0.04537 -0.0896,-0.05277 -0.003,-0.0038 -0.006,-0.006 -0.007,-0.0049 -0.001,0.0011 -0.0182,-0.0075 -0.0381,-0.019 -0.0199,-0.01152 -0.0453,-0.02579 -0.0564,-0.03171 -0.0112,-0.0059 -0.0192,-0.01255 -0.0178,-0.01475 0.001,-0.0022 -8.7e-4,-0.0027 -0.005,-0.0011 -0.004,0.0016 -0.007,7.12e-4 -0.007,-0.0019 0,-0.0026 -0.005,-0.0062 -0.0122,-0.0079 -0.007,-0.0019 -0.0109,-0.0052 -0.009,-0.0085 0.002,-0.0031 0.001,-0.0041 -0.002,-0.0023 -0.006,0.0038 -0.0504,-0.02023 -0.0471,-0.0256 0.001,-0.0021 -0.001,-0.0036 -0.006,-0.0032 -0.005,3.75e-4 -0.008,-0.0022 -0.007,-0.0057 6.3e-4,-0.0035 -0.001,-0.005 -0.004,-0.0032 -0.003,0.0017 -0.0153,-0.003 -0.0278,-0.01046 -0.0125,-0.0075 -0.0282,-0.01634 -0.0348,-0.01969 -0.007,-0.0033 -0.0207,-0.01131 -0.0313,-0.0177 -0.0106,-0.0064 -0.0265,-0.01538 -0.0354,-0.01999 -0.009,-0.0046 -0.0172,-0.01128 -0.0186,-0.01482 -0.001,-0.0035 -0.004,-0.0052 -0.007,-0.0037 -0.002,0.0015 -0.0158,-0.0043 -0.0296,-0.0128 -0.0139,-0.0085 -0.0317,-0.01925 -0.0396,-0.02379 -0.0411,-0.02344 -0.0774,-0.04523 -0.0795,-0.04772 -0.001,-0.0015 -0.006,-0.0035 -0.01,-0.0044 -0.004,-8.75e-4 -0.0105,-0.0041 -0.0145,-0.0072 -0.008,-0.0064 -0.0197,-0.01306 -0.0578,-0.03355 -0.0146,-0.0078 -0.0319,-0.01773 -0.0386,-0.022 -0.007,-0.0043 -0.0164,-0.01023 -0.0217,-0.01324 -0.0718,-0.04082 -0.10644,-0.06121 -0.10843,-0.06381 -0.001,-0.0017 -0.006,-0.0039 -0.01,-0.0047 -0.004,-8.75e-4 -0.0105,-0.0042 -0.0145,-0.0075 -0.004,-0.0032 -0.0152,-0.01 -0.025,-0.01501 -0.01,-0.005 -0.0165,-0.01121 -0.0149,-0.01376 0.002,-0.0025 3.7e-4,-0.0032 -0.002,-0.0014 -0.003,0.0018 -0.0265,-0.0094 -0.0525,-0.02486 -0.026,-0.01547 -0.0635,-0.0373 -0.0834,-0.04852 -0.0199,-0.01122 -0.0448,-0.02562 -0.0554,-0.032 -0.0106,-0.0064 -0.0306,-0.01745 -0.0444,-0.02458 -0.0147,-0.0076 -0.0239,-0.01519 -0.0221,-0.01829 0.002,-0.0029 0.001,-0.0038 -7.5e-4,-0.0019 -0.003,0.003 -0.0423,-0.01545 -0.0521,-0.02477 -0.004,-0.0034 0.0698,-0.04987 0.0766,-0.04842 0.002,3.75e-4 0.005,-0.0018 0.007,-0.0048 0.002,-0.0031 0.007,-0.006 0.0105,-0.0066 0.004,-5.63e-4 0.0131,-0.0058 0.0206,-0.01166 0.007,-0.0058 0.0154,-0.0094 0.0178,-0.008 0.002,0.0014 0.004,3.37e-4 0.004,-0.0025 0,-0.0028 0.002,-0.0051 0.005,-0.0051 0.003,0 0.0138,-0.0065 0.0248,-0.01446 0.011,-0.008 0.0229,-0.01446 0.0265,-0.01446 0.004,0 0.007,-0.0018 0.007,-0.0039 0,-0.0031 0.0277,-0.01942 0.0386,-0.02266 0.001,-4e-4 0.009,-0.0033 0.0163,-0.0065 0.0116,-0.0048 0.016,-0.0044 0.0265,0.0025 0.007,0.0046 0.0289,0.01679 0.0487,0.02717 0.0199,0.01038 0.0369,0.02081 0.0378,0.02316 8.7e-4,0.0024 0.004,0.0043 0.008,0.0043 0.003,0 0.0162,0.0077 0.0284,0.01701 0.0123,0.0094 0.024,0.01722 0.026,0.01748 0.006,8.12e-4 0.0181,0.0057 0.0206,0.0085 10e-4,0.0015 0.0149,0.009 0.0301,0.0166 0.0152,0.0076 0.0277,0.01587 0.0277,0.01836 0,0.0025 0.002,0.0032 0.005,0.0015 0.003,-0.0016 0.006,3.75e-4 0.008,0.0045 0.002,0.0041 0.005,0.0063 0.007,0.0048 0.002,-0.0015 0.004,-2.37e-4 0.004,0.0027 0,0.003 0.002,0.0042 0.004,0.0028 0.002,-0.0014 0.01,0.0017 0.0164,0.0069 0.007,0.0053 0.0145,0.0096 0.0174,0.0096 0.003,0 0.005,0.0022 0.005,0.0048 0,0.0027 0.002,0.0043 0.004,0.0037 0.005,-0.0016 0.0542,0.02608 0.0542,0.03077 0,0.0022 0.003,0.0041 0.007,0.0041 0.004,0 0.007,0.0025 0.007,0.0056 0,0.0031 10e-4,0.0042 0.003,0.0026 0.002,-0.0017 0.009,0.0012 0.0164,0.0064 0.007,0.0052 0.0157,0.0095 0.0186,0.0095 0.003,0 0.005,0.0022 0.005,0.0048 0,0.0026 0.002,0.0043 0.004,0.0037 0.005,-0.0016 0.0542,0.02598 0.0542,0.03045 0,0.0021 0.005,0.0052 0.0109,0.0071 0.006,0.0019 0.0173,0.008 0.0253,0.01356 0.008,0.0056 0.0151,0.0095 0.0158,0.0087 0.002,-0.0026 0.0619,0.03216 0.0684,0.03992 0.003,0.0041 0.0101,0.0074 0.0149,0.0074 0.005,0 0.0105,0.0027 0.0127,0.006 0.006,0.0094 0.0238,0.02245 0.0184,0.01354 -0.005,-0.0078 0.0191,0.0056 0.0843,0.04752 0.007,0.0043 0.0186,0.01097 0.0265,0.0149 0.008,0.0039 0.0155,0.0082 0.0169,0.0096 0.001,0.0013 0.0127,0.0073 0.0253,0.0132 0.0126,0.0059 0.0229,0.01334 0.0229,0.01647 0,0.0031 10e-4,0.0044 0.003,0.0029 0.002,-0.0015 0.006,2.88e-4 0.0109,0.0041 0.004,0.0038 0.01,0.0068 0.0118,0.0066 0.002,-1.5e-4 0.009,0.0042 0.0163,0.0096 0.007,0.0054 0.0149,0.0099 0.0178,0.0099 0.006,0 0.0618,0.03332 0.0659,0.03922 0.001,0.0021 0.0247,0.01484 0.0518,0.02842 0.0271,0.01358 0.0492,0.02669 0.0492,0.02912 0,0.0024 0.002,0.0041 0.004,0.0036 0.007,-0.0016 0.0298,0.01188 0.0273,0.01595 -0.001,0.0022 7.5e-4,0.0028 0.005,0.0012 0.004,-0.0016 0.007,-4.75e-4 0.007,0.0025 0,0.0029 0.003,0.0053 0.006,0.0053 0.004,0 0.0115,0.0043 0.0176,0.0096 0.006,0.0053 0.0137,0.0096 0.0169,0.0096 0.003,0 0.0142,0.006 0.0246,0.01325 0.0104,0.0073 0.0356,0.02192 0.0561,0.03252 0.0205,0.0106 0.0373,0.0209 0.0373,0.02289 0,0.002 0.003,0.0036 0.007,0.0036 0.004,0 0.0166,0.0077 0.0289,0.01709 0.0123,0.0094 0.0224,0.01565 0.0224,0.0139 0,-0.0018 0.005,3.25e-4 0.0119,0.0046 0.007,0.0043 0.019,0.01178 0.0277,0.01663 l 0.0158,0.0088 2.5e-4,0.156203 2.5e-4,0.156203 -0.0219,0.01394 c -0.012,0.0077 -0.0338,0.02049 -0.0484,0.02849 -0.0309,0.01694 -0.0435,0.02412 -0.0699,0.03976 -0.0375,0.02223 -0.0554,0.03121 -0.0554,0.02782 0,-0.0019 -0.003,-5.6e-5 -0.006,0.0041 -0.003,0.0041 -0.0158,0.01267 -0.0277,0.01899 -0.0119,0.0063 -0.0247,0.01433 -0.0283,0.01779 -0.004,0.0035 -0.01,0.0051 -0.0135,0.0037 -0.004,-0.0014 -0.006,-8e-4 -0.004,0.0014 0.001,0.0022 -0.008,0.0092 -0.0202,0.01554 -0.0125,0.0063 -0.0238,0.01273 -0.0252,0.01429 -0.001,0.0016 -0.006,0.0042 -0.01,0.006 -0.004,0.0017 -0.0159,0.0085 -0.0265,0.01504 -0.0362,0.02231 -0.0887,0.05097 -0.0933,0.05097 -0.003,0 -0.005,0.0017 -0.006,0.0038 -0.003,0.0071 -0.0461,0.02963 -0.0499,0.02616 -0.002,-0.0019 -0.002,-0.0011 -0.001,0.0017 0.004,0.0064 -0.0532,0.03713 -0.0604,0.03268 -0.003,-0.0019 -0.004,-9.12e-4 -0.002,0.0025 0.002,0.0036 -0.002,0.0076 -0.0113,0.01086 -0.008,0.0028 -0.0148,0.0069 -0.0148,0.009 0,0.0021 -0.006,0.0063 -0.0132,0.0093 -0.007,0.003 -0.0259,0.01293 -0.0414,0.02214 -0.0155,0.0092 -0.0305,0.01534 -0.0333,0.01362 -0.003,-0.0017 -0.004,-0.001 -0.002,0.0015 0.002,0.0025 -0.005,0.0088 -0.0149,0.01395 -0.01,0.0051 -0.0189,0.01065 -0.0202,0.01226 -0.006,0.0071 -0.0248,0.01417 -0.0298,0.01109 -0.003,-0.0021 -0.004,-0.0012 -0.002,0.0021 0.002,0.0034 -0.004,0.0087 -0.0149,0.014 -0.0101,0.0047 -0.0194,0.0097 -0.0207,0.01124 -0.001,0.0015 -0.006,0.0042 -0.01,0.0059 -0.004,0.0017 -0.0159,0.0085 -0.0265,0.01506 -0.0106,0.0065 -0.0375,0.02231 -0.0599,0.03504 -0.0499,0.02847 -0.0609,0.03486 -0.0823,0.04785 -0.009,0.0056 -0.0268,0.01568 -0.0389,0.02233 -0.0364,0.01992 -0.0451,0.02498 -0.0526,0.03068 -0.004,0.003 -0.0213,0.013 -0.0385,0.02224 -0.0172,0.0092 -0.0428,0.0236 -0.0568,0.03191 -0.014,0.0083 -0.0274,0.01511 -0.0297,0.01511 -0.002,0 -0.005,0.0018 -0.006,0.0041 -0.001,0.0023 -0.0146,0.01133 -0.0305,0.02017 -0.0415,0.02308 -0.0509,0.02839 -0.0706,0.04003 -0.01,0.0057 -0.0317,0.01853 -0.049,0.02848 -0.0173,0.0099 -0.0321,0.02024 -0.033,0.02287 -0.004,0.01314 0.001,0.313247 0.006,0.313247 0.003,0 0.0179,-0.0075 0.0336,-0.01671 0.0157,-0.0092 0.0285,-0.01555 0.0285,-0.01413 0,0.0014 0.006,-0.0016 0.0132,-0.0067 0.007,-0.0051 0.0181,-0.01085 0.0241,-0.0127 0.006,-0.0019 0.0109,-0.005 0.0109,-0.0071 0,-0.0045 0.049,-0.03201 0.0542,-0.03045 0.002,6e-4 0.004,-0.0011 0.004,-0.0037 0,-0.0026 0.002,-0.0048 0.005,-0.0048 0.003,0 0.0113,-0.0043 0.0186,-0.0095 0.007,-0.0052 0.0147,-0.0081 0.0164,-0.0064 0.002,0.0017 0.003,5.5e-4 0.003,-0.0026 0,-0.0031 0.003,-0.0056 0.007,-0.0056 0.004,0 0.007,-0.0023 0.007,-0.0051 0,-0.0028 0.002,-0.0038 0.005,-0.0021 0.003,0.0016 0.005,6.62e-4 0.005,-0.0022 0,-0.0028 0.0103,-0.01002 0.0229,-0.01595 0.0126,-0.0059 0.024,-0.01187 0.0253,-0.0132 0.001,-0.0013 0.009,-0.0056 0.0169,-0.0095 0.008,-0.0039 0.0215,-0.0123 0.0301,-0.01864 0.009,-0.0063 0.0157,-0.0098 0.0157,-0.0077 0,0.0021 0.005,-6.25e-4 0.0109,-0.0061 0.0123,-0.01125 0.0427,-0.02798 0.0482,-0.02649 0.002,5.5e-4 0.004,-0.0013 0.004,-0.0041 0,-0.0028 0.002,-0.0038 0.005,-0.0022 0.003,0.0016 0.009,-0.0016 0.0146,-0.0071 0.006,-0.0055 0.0124,-0.0085 0.0154,-0.0067 0.003,0.0019 0.004,0.0012 0.002,-0.0015 -0.003,-0.0042 0.0109,-0.0135 0.0221,-0.01515 0.002,-3e-4 0.008,-0.0049 0.0142,-0.01032 0.006,-0.0054 0.0176,-0.01236 0.0264,-0.01553 0.009,-0.0032 0.0159,-0.0076 0.0159,-0.0099 0,-0.0023 0.002,-0.0028 0.005,-0.0011 0.003,0.0016 0.005,0.001 0.005,-0.0014 0,-0.0024 0.009,-0.0072 0.0195,-0.01077 0.0107,-0.0035 0.021,-0.0088 0.0229,-0.01178 0.006,-0.0095 0.10699,-0.06872 0.10699,-0.06276 0,0.0015 0.0101,-0.0049 0.0224,-0.01431 0.0123,-0.0094 0.0253,-0.01709 0.0289,-0.01709 0.004,0 0.007,-0.0018 0.007,-0.0039 0,-0.0038 0.0324,-0.02124 0.0351,-0.0189 6.2e-4,6.25e-4 0.007,-0.0037 0.0151,-0.0097 0.008,-0.006 0.0167,-0.01084 0.0202,-0.01084 0.004,0 0.0103,-0.004 0.015,-0.009 0.005,-0.0049 0.026,-0.01816 0.0472,-0.0294 0.0212,-0.01124 0.0413,-0.02265 0.0446,-0.02536 0.003,-0.0027 0.006,-0.003 0.006,-7.13e-4 4e-5,0.0023 0.002,0.002 0.004,-6.12e-4 0.008,-0.01125 0.0626,-0.04392 0.0698,-0.04195 0.002,5.5e-4 0.004,-9.25e-4 0.004,-0.0033 0,-0.0023 0.005,-0.0058 0.0109,-0.0078 0.006,-0.0019 0.0125,-0.0041 0.0145,-0.0048 0.002,-7e-4 0.006,-0.0015 0.009,-0.0019 0.003,-3.38e-4 0.004,-0.0023 0.003,-0.0044 -0.001,-0.0021 0.004,-0.0068 0.0126,-0.01042 0.008,-0.0036 0.0185,-0.0096 0.0228,-0.01331 0.0139,-0.01194 0.0591,-0.03611 0.0551,-0.0295 -0.005,0.0083 0.0131,-0.0053 0.0187,-0.01406 0.002,-0.0033 0.008,-0.006 0.0125,-0.006 0.005,0 0.0121,-0.0038 0.0163,-0.0084 0.004,-0.0046 0.0203,-0.01494 0.0357,-0.02289 0.0154,-0.008 0.0287,-0.01596 0.0296,-0.0178 7.5e-4,-0.0018 0.005,-0.0022 0.008,-7e-4 0.004,0.0015 0.007,5.75e-4 0.007,-0.0019 0,-0.0025 0.009,-0.0085 0.0193,-0.01329 0.0106,-0.0048 0.0193,-0.01008 0.0193,-0.01178 0,-0.0038 0.0593,-0.03882 0.0658,-0.03882 0.003,0 0.005,0.05625 0.005,0.153647 l 1.1e-4,0.153647 -0.0165,0.0079 c -0.009,0.0043 -0.0189,0.0064 -0.0217,0.0046 -0.003,-0.0018 -0.004,-0.001 -0.002,0.0019 0.003,0.005 -0.039,0.03334 -0.0462,0.03119 -0.002,-5.88e-4 -0.004,0.0011 -0.004,0.0037 0,0.0027 -0.002,0.0048 -0.005,0.0048 -0.003,0 -0.0117,0.0045 -0.0194,0.01009 -0.008,0.0055 -0.0175,0.0088 -0.0215,0.0073 -0.004,-0.0015 -0.006,-9e-4 -0.005,0.0014 0.001,0.0023 -0.003,0.0078 -0.009,0.0121 -0.007,0.0043 -0.012,0.0065 -0.012,0.0049 0,-0.0016 -0.007,0.0028 -0.0151,0.0098 -0.008,0.007 -0.0182,0.01156 -0.0219,0.01012 -0.004,-0.0014 -0.006,-8.87e-4 -0.004,0.0012 0.001,0.0021 -0.006,0.008 -0.0154,0.01302 -0.01,0.0051 -0.0268,0.01524 -0.0379,0.02262 -0.0111,0.0074 -0.0213,0.01343 -0.0228,0.01343 -0.001,0 -0.0146,0.0076 -0.0291,0.01694 -0.0146,0.0093 -0.0314,0.01904 -0.0374,0.0216 -0.006,0.0026 -0.0196,0.01 -0.0302,0.01654 -0.0338,0.02086 -0.0468,0.02676 -0.0519,0.02361 -0.003,-0.0017 -0.004,-7.75e-4 -0.002,0.002 0.004,0.0065 -0.0674,0.0462 -0.0748,0.0416 -0.003,-0.0021 -0.004,-0.0012 -0.002,0.0022 0.002,0.0032 -2.5e-4,0.007 -0.005,0.0089 -0.005,0.0018 -0.0116,0.0061 -0.0151,0.0096 -0.003,0.0035 -0.009,0.0063 -0.0132,0.0063 -0.004,0 -0.007,0.0023 -0.007,0.0051 0,0.0028 -0.002,0.0038 -0.005,0.0021 -0.003,-0.0016 -0.005,-0.0012 -0.005,0.0011 0,0.0022 -0.006,0.0066 -0.0132,0.0098 -0.007,0.0032 -0.0203,0.01016 -0.0289,0.01551 -0.0502,0.03123 -0.12521,0.07298 -0.12957,0.07215 -0.002,-3.5e-4 -0.005,0.0028 -0.008,0.007 -0.002,0.0042 -0.007,0.0077 -0.009,0.0077 -0.003,0 -0.0108,0.0041 -0.0178,0.0091 -0.007,0.005 -0.0258,0.01619 -0.0417,0.02488 -0.0336,0.01837 -0.0459,0.02534 -0.0723,0.04109 -0.0106,0.0063 -0.029,0.01642 -0.041,0.02244 -0.0119,0.006 -0.0258,0.01467 -0.0309,0.01922 -0.005,0.0045 -0.0108,0.0073 -0.0127,0.0061 -0.002,-0.0012 -0.006,0.0011 -0.01,0.005 -0.003,0.0039 -0.009,0.0072 -0.0126,0.0072 -0.004,0 -0.007,0.0016 -0.007,0.0037 0,0.002 -0.0146,0.01122 -0.0325,0.02044 -0.0179,0.0092 -0.0336,0.01804 -0.0349,0.01958 -0.001,0.0015 -0.006,0.0042 -0.01,0.006 -0.004,0.0017 -0.0159,0.0086 -0.0265,0.0152 -0.0106,0.0066 -0.029,0.01749 -0.041,0.02416 -0.0119,0.0067 -0.0325,0.01869 -0.0458,0.02672 -0.0132,0.008 -0.0274,0.01606 -0.0313,0.01784 -0.004,0.0018 -0.0168,0.0092 -0.0284,0.01661 -0.0117,0.0074 -0.023,0.01223 -0.0253,0.01083 -0.002,-0.0014 -0.004,-4e-4 -0.004,0.0022 0,0.0026 -0.006,0.0082 -0.0145,0.01233 -0.0201,0.01054 -0.0374,0.02043 -0.0626,0.0359 l -0.0217,0.01327 -0.001,0.159917 c -7.5e-4,0.09639 3.7e-4,0.159917 0.003,0.159917 0.002,0 0.0211,-0.0098 0.0414,-0.02182 0.0203,-0.012 0.0353,-0.0192 0.0333,-0.01599 -0.002,0.0032 0.004,1.4e-5 0.0133,-0.0071 0.009,-0.0071 0.0193,-0.01292 0.0222,-0.01292 0.003,0 0.008,-0.0032 0.0123,-0.0071 0.0108,-0.01077 0.0622,-0.03998 0.0769,-0.04367 0.007,-0.0018 0.0119,-0.005 0.0105,-0.0072 -10e-4,-0.0022 0.005,-0.0067 0.0145,-0.01009 0.009,-0.0034 0.0169,-0.008 0.0169,-0.01026 0,-0.0023 0.002,-0.0028 0.005,-0.0012 0.003,0.0016 0.005,6.75e-4 0.005,-0.0022 0,-0.0028 0.0125,-0.01127 0.0277,-0.01877 0.0152,-0.0075 0.0353,-0.01833 0.0446,-0.02408 0.009,-0.0057 0.0236,-0.01357 0.0317,-0.01738 0.008,-0.0038 0.0173,-0.0098 0.0202,-0.01323 0.003,-0.0035 0.0201,-0.01389 0.0382,-0.02317 0.0181,-0.0093 0.0342,-0.01877 0.0359,-0.0211 0.002,-0.0023 0.006,-0.0025 0.01,-4.25e-4 0.004,0.0021 0.005,0.002 0.003,-9e-5 -0.003,-0.0038 0.087,-0.0603 0.0965,-0.0603 0.007,0 0.0249,-0.01023 0.0492,-0.02826 0.0119,-0.0088 0.0315,-0.02083 0.0434,-0.02667 0.0119,-0.0058 0.0276,-0.01455 0.0349,-0.01936 0.007,-0.0048 0.0132,-0.0073 0.0132,-0.0056 0,0.0018 0.0101,-0.0045 0.0224,-0.0139 0.0123,-0.0094 0.0253,-0.01709 0.0289,-0.01709 0.004,0 0.007,-0.0018 0.007,-0.0039 0,-0.0037 0.0325,-0.02129 0.035,-0.01892 6.2e-4,6.13e-4 0.008,-0.0035 0.0156,-0.0091 0.008,-0.0056 0.0193,-0.01171 0.0253,-0.01356 0.006,-0.0019 0.0109,-0.005 0.0109,-0.0071 0,-0.0045 0.049,-0.03201 0.0542,-0.03045 0.002,6e-4 0.004,-0.0011 0.004,-0.0037 0,-0.0026 0.003,-0.0048 0.006,-0.0048 0.003,0 0.009,-0.0031 0.0132,-0.0068 0.004,-0.0038 0.0109,-0.0076 0.0148,-0.0084 0.004,-8.75e-4 0.008,-0.0027 0.01,-0.0042 0.007,-0.0074 0.0519,-0.0343 0.0614,-0.03667 0.006,-0.0015 0.0109,-0.0047 0.0109,-0.007 0,-0.0024 0.003,-0.0043 0.006,-0.0043 0.004,0 0.0171,-0.0068 0.0301,-0.01518 0.078,-0.04996 0.0961,-0.06025 0.0911,-0.052 -0.005,0.0089 0.0124,-0.0042 0.0184,-0.01354 0.002,-0.0033 0.008,-0.006 0.0125,-0.006 0.005,0 0.0121,-0.0038 0.0163,-0.0084 0.004,-0.0046 0.0203,-0.01494 0.0357,-0.02289 0.0154,-0.008 0.0287,-0.01596 0.0296,-0.0178 7.5e-4,-0.0018 0.005,-0.0021 0.008,-7e-4 0.004,0.0015 0.007,5.25e-4 0.007,-0.0021 0,-0.0026 0.007,-0.0075 0.0157,-0.0109 0.009,-0.0034 0.0178,-0.0085 0.0205,-0.01149 0.008,-0.0091 0.0523,-0.03605 0.0556,-0.034 0.002,0.0011 0.003,0.07026 0.003,0.153762 l 1.2e-4,0.151818 -0.0167,0.0098 c -0.009,0.0054 -0.0187,0.0086 -0.0212,0.007 -0.003,-0.0016 -0.004,5.6e-5 -0.003,0.0036 6.3e-4,0.0035 -0.001,0.0058 -0.005,0.0052 -0.003,-6.62e-4 -0.006,6.25e-4 -0.006,0.0028 0,0.0067 -0.0477,0.03053 -0.0537,0.02682 -0.003,-0.0021 -0.004,-0.0013 -0.002,0.0021 0.002,0.0033 -0.001,0.0075 -0.008,0.0103 -0.006,0.0026 -0.0198,0.01017 -0.0304,0.01682 -0.0106,0.0067 -0.0269,0.01582 -0.0361,0.02037 -0.009,0.0046 -0.0207,0.01141 -0.0253,0.01524 -0.005,0.0038 -0.008,0.0054 -0.008,0.0035 0,-0.0019 -0.004,3.6e-5 -0.008,0.0043 -0.004,0.0043 -0.0109,0.0067 -0.0147,0.0052 -0.004,-0.0014 -0.006,-6e-4 -0.004,0.0019 0.002,0.0037 -0.0128,0.01572 -0.0216,0.01709 -10e-4,2.13e-4 -0.0149,0.0085 -0.0301,0.0184 -0.0153,0.0099 -0.0315,0.01939 -0.0361,0.02106 -0.005,0.0017 -0.0144,0.0072 -0.0216,0.0122 -0.007,0.005 -0.0152,0.008 -0.0176,0.0065 -0.002,-0.0015 -0.006,5e-4 -0.007,0.0044 -0.001,0.0039 -0.0103,0.01092 -0.0195,0.01563 -0.0148,0.0076 -0.0646,0.03501 -0.0993,0.05473 -0.007,0.0038 -0.0131,0.0083 -0.0145,0.01008 -0.004,0.0051 -0.0549,0.0303 -0.059,0.02913 -0.002,-5.75e-4 -0.004,0.0012 -0.004,0.0039 0,0.0027 -0.005,0.007 -0.0109,0.0096 -0.006,0.0025 -0.0195,0.01 -0.0301,0.01648 -0.0365,0.02245 -0.0887,0.05095 -0.0933,0.05095 -0.003,0 -0.005,0.0016 -0.006,0.0036 -0.004,0.0082 -0.0868,0.05493 -0.0933,0.05244 -0.004,-0.0015 -0.007,-4.13e-4 -0.006,0.0024 5e-4,0.0028 -0.006,0.0089 -0.0145,0.01365 -0.009,0.0047 -0.0183,0.01076 -0.0217,0.01343 -0.003,0.0027 -0.0202,0.01241 -0.0374,0.02167 -0.0172,0.0093 -0.0429,0.02366 -0.057,0.03201 -0.0141,0.0084 -0.0277,0.01391 -0.0302,0.01234 -0.003,-0.0016 -0.004,-4.5e-4 -0.003,0.0025 6.2e-4,0.0029 -0.0128,0.01303 -0.03,0.02247 -0.0172,0.0094 -0.034,0.01939 -0.0373,0.0221 -0.003,0.0027 -0.009,0.0037 -0.0132,0.0022 -0.004,-0.0015 -0.007,-5.5e-4 -0.006,0.0022 5e-4,0.0027 -0.008,0.0101 -0.0181,0.01642 -0.0449,0.02676 -0.0891,0.05058 -0.0937,0.05058 -0.003,0 -0.005,0.0024 -0.005,0.0053 0,0.0029 -0.003,0.004 -0.007,0.0025 -0.004,-0.0016 -0.006,-8.5e-4 -0.005,0.0019 0.002,0.004 -0.0104,0.01182 -0.0229,0.01381 -0.002,3.13e-4 -0.008,0.0049 -0.0131,0.01009 -0.005,0.0052 -0.015,0.01089 -0.0217,0.01257 -0.007,0.0017 -0.0122,0.0047 -0.0122,0.0068 0,0.0021 -0.004,0.005 -0.008,0.0065 -0.005,0.0015 -0.0171,0.0082 -0.0277,0.01482 -0.0106,0.0066 -0.0269,0.01586 -0.0361,0.0205 -0.009,0.0046 -0.0197,0.01124 -0.0232,0.01465 -0.004,0.0034 -0.008,0.0062 -0.0109,0.0062 -0.003,0 -0.004,0.209875 -0.004,0.537323 0,0.426827 -0.001,0.537252 -0.006,0.53698 -0.003,-1.75e-4 -0.0136,-0.0048 -0.0229,-0.01015 z"
         id="path302"
         sodipodi:nodetypes="cssssssscsssssssscssssssssssssssscssssssscsssssssssssssssssssssssssssssssssssssssssssssssssssssssssssssssssssssssssssssssssssssscsssssssssssssscssssssssssssssssssssssssssssssssssssssssssssssscsssssssssssssssssssssssssssssssssssssssssssssssssscsssssssssssssssssssssssssssssssssssssssssssssssssssssssssssssssssssssssssssssssssssssssssssssssssssssssssssssssssssscsssssssssssssssssssscccssssssssssssssssssssssssssssssssssssssssssssssssssssssssssscsssssscssccsccssscssssssssssssscsssssssssssssssssssscccsssssssssssccssssssscsscssscsscssssssssscsssscssssssssscssssssscssscsssssssscsssssssssssssssscssssssssssssssssscsccsssssssssccccsssssssscssssscssssscssssssssssssssssssssscc" /></g></g></svg>
